<?xml version="1.0" encoding="UTF-8"?>
<svg enable-background="new 0 0 464 464" version="1.1" viewBox="0 0 464 464" xml:space="preserve" xmlns="http://www.w3.org/2000/svg">
<g fill="#EFF1F4">
	<path d="m305.87 451.92c-2.416 0.816-4.848 1.608-7.296 2.336 2.456-0.736 4.88-1.528 7.296-2.336z"/>
	<path d="m317.99 447.47c-2.608 1.04-5.216 2.064-7.872 3.008 2.656-0.952 5.272-1.968 7.872-3.008z"/>
</g>
<circle cx="232" cy="232" r="232" fill="#EDEDED"/>
<g fill="#F2F4F7">
	<path d="m293.9 455.58c-2.368 0.656-4.752 1.28-7.16 1.864 2.408-0.584 4.792-1.208 7.16-1.864z"/>
	<path d="m215.19 463.33c-2.832-0.2-5.656-0.416-8.448-0.72 2.8 0.304 5.624 0.52 8.448 0.72z"/>
	<path d="m177.26 457.44c-2.4-0.584-4.784-1.208-7.16-1.864 2.376 0.664 4.76 1.288 7.16 1.864z"/>
	<path d="m201.94 462c-2.536-0.328-5.064-0.672-7.576-1.08 2.504 0.408 5.04 0.744 7.576 1.08z"/>
	<path d="m232 464c-4.272 0-8.504-0.136-12.72-0.36 4.216 0.224 8.448 0.36 12.72 0.36z"/>
	<path d="m189.42 460.03c-2.432-0.448-4.856-0.928-7.256-1.456 2.4 0.528 4.824 1.008 7.256 1.456z"/>
	<path d="m142.61 446.13c-3.608-1.512-7.176-3.096-10.688-4.776 3.52 1.68 7.088 3.272 10.688 4.776z"/>
	<path d="m153.87 450.48c-2.648-0.952-5.264-1.968-7.872-3.008 2.608 1.04 5.224 2.056 7.872 3.008z"/>
	<path d="m244.72 463.64c-4.216 0.224-8.448 0.36-12.72 0.36 4.272 0 8.504-0.136 12.72-0.36z"/>
	<path d="m257.26 462.61c-2.8 0.304-5.624 0.52-8.448 0.72 2.824-0.2 5.648-0.416 8.448-0.72z"/>
	<path d="m281.85 458.58c-2.408 0.528-4.824 1.008-7.256 1.456 2.424-0.448 4.848-0.928 7.256-1.456z"/>
	<path d="m269.64 460.91c-2.512 0.408-5.04 0.752-7.576 1.08 2.528-0.328 5.064-0.664 7.576-1.08z"/>
	<path d="m332.03 441.37c-3.496 1.672-7.048 3.256-10.64 4.76 3.592-1.504 7.144-3.08 10.64-4.76z"/>
	<path d="m165.42 454.26c-2.456-0.736-4.88-1.528-7.296-2.336 2.416 0.808 4.84 1.6 7.296 2.336z"/>
	<path d="m321.39 446.13c-1.12 0.472-2.264 0.888-3.392 1.336 1.12-0.448 2.264-0.864 3.392-1.336z"/>
	<path d="m332.35 441.22c-0.104 0.048-0.216 0.096-0.32 0.144 0.104-0.048 0.216-0.088 0.32-0.144z"/>
	<path d="m182.15 458.58c-1.64-0.36-3.272-0.736-4.896-1.128 1.624 0.392 3.256 0.768 4.896 1.128z"/>
	<path d="m194.36 460.91c-1.656-0.272-3.304-0.576-4.952-0.88 1.656 0.304 3.296 0.616 4.952 0.88z"/>
	<path d="m219.28 463.64c-1.368-0.072-2.728-0.216-4.088-0.312 1.368 0.096 2.72 0.24 4.088 0.312z"/>
	<path d="m206.74 462.61c-1.608-0.176-3.2-0.4-4.8-0.608 1.6 0.208 3.192 0.432 4.8 0.608z"/>
	<path d="m131.93 441.35c-0.088-0.04-0.184-0.08-0.272-0.12 0.088 0.04 0.184 0.08 0.272 0.12z"/>
	<path d="m248.81 463.33c-1.368 0.096-2.72 0.24-4.088 0.312 1.368-0.072 2.72-0.216 4.088-0.312z"/>
	<path d="m298.58 454.26c-1.552 0.464-3.112 0.896-4.68 1.328 1.568-0.432 3.128-0.864 4.68-1.328z"/>
	<path d="m310.13 450.48c-1.408 0.504-2.832 0.96-4.248 1.44 1.416-0.48 2.84-0.936 4.248-1.44z"/>
	<path d="m146.01 447.47c-1.128-0.448-2.272-0.872-3.392-1.336 1.12 0.464 2.264 0.88 3.392 1.336z"/>
	<path d="m158.13 451.92c-1.416-0.48-2.848-0.936-4.248-1.44 1.4 0.504 2.824 0.96 4.248 1.44z"/>
	<path d="m262.06 462c-1.6 0.208-3.192 0.44-4.8 0.608 1.608-0.176 3.2-0.4 4.8-0.608z"/>
	<path d="m286.74 457.44c-1.624 0.392-3.256 0.768-4.896 1.128 1.64-0.352 3.272-0.728 4.896-1.128z"/>
	<path d="m274.58 460.03c-1.648 0.304-3.288 0.616-4.952 0.88 1.664-0.264 3.304-0.576 4.952-0.88z"/>
	<path d="m170.1 455.58c-1.56-0.432-3.128-0.864-4.68-1.328 1.552 0.464 3.112 0.896 4.68 1.328z"/>
</g>
<path d="m285.1 247.95c25.848-17.208 42.896-46.576 42.896-79.952 0-53.016-42.984-96-96-96s-96 42.984-96 96c0 33.376 17.048 62.744 42.896 79.952 0 0 8e-3 8e-3 0.016 8e-3 -8e-3 0-8e-3 -8e-3 -8e-3 -8e-3 -61.872 18.648-110.05 68.864-125.56 132.04l8e-3 8e-3c2.528 3.048 5.152 6.024 7.832 8.944 0.648 0.712 1.328 1.392 1.992 2.088 2.064 2.192 4.152 4.352 6.296 6.464 0.888 0.872 1.792 1.712 2.696 2.568 1.984 1.888 3.992 3.752 6.04 5.568 1.016 0.896 2.048 1.784 3.072 2.664 2.008 1.72 4.04 3.408 6.112 5.056 1.088 0.872 2.184 1.728 3.28 2.584 2.096 1.616 4.224 3.184 6.376 4.72 1.112 0.792 2.208 1.6 3.336 2.376 2.272 1.568 4.584 3.072 6.912 4.56 1.048 0.664 2.072 1.352 3.128 2.008 2.688 1.656 5.424 3.24 8.184 4.792 0.728 0.408 1.44 0.848 2.176 1.248 3.568 1.952 7.192 3.824 10.872 5.592 0.088 0.04 0.184 0.08 0.272 0.12 3.512 1.68 7.08 3.272 10.688 4.776 1.12 0.472 2.264 0.888 3.392 1.336 2.608 1.04 5.216 2.064 7.872 3.008 1.408 0.504 2.832 0.96 4.248 1.44 2.416 0.816 4.848 1.608 7.296 2.336 1.552 0.464 3.112 0.896 4.68 1.328 2.368 0.656 4.752 1.28 7.16 1.864 1.624 0.392 3.256 0.768 4.896 1.128 2.408 0.528 4.824 1.008 7.256 1.456 1.648 0.304 3.288 0.616 4.952 0.88 2.512 0.408 5.04 0.752 7.576 1.08 1.6 0.208 3.192 0.44 4.8 0.608 2.8 0.304 5.624 0.52 8.448 0.72 1.368 0.096 2.72 0.24 4.088 0.312 4.216 0.24 8.448 0.376 12.72 0.376s8.504-0.136 12.72-0.36c1.368-0.072 2.728-0.216 4.088-0.312 2.832-0.2 5.656-0.416 8.448-0.72 1.608-0.176 3.2-0.4 4.8-0.608 2.536-0.328 5.064-0.672 7.576-1.08 1.656-0.272 3.304-0.576 4.952-0.88 2.432-0.448 4.856-0.928 7.256-1.456 1.64-0.36 3.272-0.736 4.896-1.128 2.4-0.584 4.784-1.208 7.16-1.864 1.56-0.432 3.128-0.864 4.68-1.328 2.456-0.736 4.88-1.528 7.296-2.336 1.416-0.48 2.848-0.936 4.248-1.44 2.648-0.952 5.264-1.968 7.872-3.008 1.128-0.448 2.272-0.872 3.392-1.336 3.592-1.504 7.144-3.08 10.64-4.76 0.104-0.048 0.216-0.096 0.32-0.144 3.68-1.768 7.304-3.64 10.872-5.592 0.736-0.4 1.448-0.84 2.176-1.248 2.76-1.552 5.496-3.136 8.184-4.792 1.056-0.648 2.088-1.336 3.128-2.008 2.328-1.488 4.64-3 6.912-4.56 1.12-0.776 2.224-1.576 3.336-2.376 2.152-1.544 4.28-3.112 6.376-4.72 1.104-0.848 2.192-1.712 3.28-2.584 2.064-1.648 4.104-3.336 6.112-5.056 1.032-0.88 2.064-1.768 3.072-2.664 2.048-1.816 4.056-3.68 6.04-5.568 0.896-0.856 1.808-1.704 2.696-2.568 2.144-2.112 4.24-4.272 6.296-6.464 0.656-0.704 1.336-1.384 1.992-2.088 2.68-2.92 5.304-5.896 7.832-8.944l8e-3 -8e-3c-15.504-63.184-63.68-113.4-125.55-132.05z" fill="#3C4B64"/>
</svg>
